<svg width="684" height="357" viewBox="0 0 684 327" fill="none" xmlns="http://www.w3.org/2000/svg">
<rect x="135" y="96" width="80" height="15" rx="7" fill="white"/>
<rect x="378.76" y="12.6219" width="184.472" height="15" rx="7" transform="rotate(114.474 378.76 12.6219)" fill="white"/>
<path d="M466.594 100.669C469.322 103.408 469.313 107.84 466.574 110.568L423.544 153.417C420.805 156.145 416.373 156.136 413.645 153.396L412.939 152.688C410.211 149.948 410.221 145.516 412.96 142.788L455.989 99.9393C458.729 97.2114 463.161 97.2207 465.889 99.9601L466.594 100.669Z" fill="white"/>
<rect x="248.138" y="37.1318" width="150.76" height="15" rx="7" transform="rotate(66.7563 248.138 37.1318)" fill="white"/>
<rect x="374.163" y="6" width="156.442" height="15" rx="7" transform="rotate(70.7665 374.163 6)" fill="white"/>
<rect x="199" y="105.416" width="80" height="15" rx="7" transform="rotate(-58.7814 199 105.416)" fill="white"/>
<rect x="456" y="96" width="96" height="15" rx="7" fill="white"/>
<path d="M542 19C542 10.1634 549.163 3 558 3H598C606.837 3 614 10.1634 614 19V170C614 178.837 606.837 186 598 186H558C549.163 186 542 178.837 542 170V19Z" fill="#EAD009"/>
<rect y="27" width="53" height="134" rx="16" fill="#EAD009"/>
<rect x="631" y="27" width="53" height="134" rx="16" fill="#EAD009"/>
<path d="M70 16C70 7.16344 77.1634 0 86 0H126C134.837 0 142 7.16344 142 16V167C142 175.837 134.837 183 126 183H86C77.1634 183 70 175.837 70 167V16Z" fill="#EAD009"/>
<path d="M200.663 300.84C200.876 301.8 200.876 302.787 200.663 303.8H196.503C196.236 305.987 196.023 308.413 195.863 311.08C195.756 313.693 195.703 317 195.703 321C192.823 322.227 190.236 323.24 187.943 324.04C185.649 324.787 183.489 325.32 181.462 325.64C179.436 326.013 177.356 326.2 175.223 326.2C168.983 326.2 163.569 324.973 158.983 322.52C154.449 320.067 150.956 316.653 148.503 312.28C146.049 307.907 144.823 302.813 144.823 297C144.823 291.187 146.076 286.093 148.583 281.72C151.143 277.347 154.743 273.933 159.383 271.48C164.076 269.027 169.623 267.8 176.023 267.8C179.169 267.8 182.156 268.093 184.983 268.68C187.863 269.213 190.609 270.12 193.223 271.4V286.2C192.369 286.36 191.516 286.36 190.663 286.2C189.649 281.347 188.023 277.64 185.783 275.08C183.596 272.467 180.076 271.16 175.223 271.16C171.116 271.16 167.809 272.253 165.303 274.44C162.849 276.627 161.089 279.587 160.023 283.32C158.956 287 158.423 291.133 158.423 295.72C158.423 298.973 158.689 302.227 159.223 305.48C159.809 308.68 160.743 311.587 162.023 314.2C163.303 316.813 165.009 318.92 167.143 320.52C169.329 322.067 172.023 322.84 175.223 322.84C177.249 322.84 178.983 322.547 180.423 321.96C181.916 321.32 183.276 320.413 184.503 319.24C184.503 316.093 184.423 313.293 184.263 310.84C184.156 308.333 183.969 305.987 183.703 303.8H177.543C177.329 302.787 177.329 301.8 177.543 300.84C179.409 300.893 181.329 300.947 183.302 301C185.329 301 187.463 301 189.703 301C191.569 301 193.409 301 195.223 301C197.036 300.947 198.849 300.893 200.663 300.84ZM223.466 325.16C223.253 324.147 223.253 323.16 223.466 322.2H228.826C229.093 320.013 229.28 317.827 229.386 315.64C229.546 313.453 229.626 311.773 229.626 310.6V309.56C229.626 305.933 229.093 302.253 228.026 298.52C227.013 294.787 225.68 291.213 224.026 287.8C222.373 284.387 220.586 281.32 218.666 278.6C216.8 275.827 214.986 273.56 213.226 271.8H228.506C228.773 272.707 229.306 273.773 230.106 275C230.906 276.227 231.866 277.773 232.986 279.64C234.106 281.453 235.253 283.747 236.426 286.52C237.6 289.293 238.693 292.653 239.706 296.6C240.24 294.307 241.013 291.987 242.026 289.64C243.04 287.293 244.08 285.133 245.146 283.16C246.213 281.133 247.066 279.56 247.706 278.44C248.666 276.787 249.36 275.4 249.786 274.28C250.266 273.16 250.586 272.333 250.746 271.8H257.786C255.066 274.627 252.693 277.613 250.666 280.76C248.64 283.853 246.96 287 245.626 290.2C244.293 293.347 243.28 296.387 242.586 299.32C241.946 302.2 241.626 304.813 241.626 307.16V308.2C241.626 310.6 241.68 313 241.786 315.4C241.946 317.747 242.16 320.013 242.426 322.2H247.786C248 323.16 248 324.147 247.786 325.16C245.973 325.053 243.946 325 241.706 325C239.52 325 237.493 325 235.626 325C233.813 325 231.786 325 229.546 325C227.36 325 225.333 325.053 223.466 325.16ZM209.066 271.8C208.853 270.787 208.853 269.8 209.066 268.84C210.933 268.893 212.666 268.947 214.266 269C215.92 269 218.053 269 220.666 269C221.36 269 222.373 269 223.706 269C225.093 269 226.586 269 228.186 269C229.786 268.947 231.333 268.893 232.826 268.84C233.04 269.8 233.04 270.787 232.826 271.8H209.066ZM243.626 271.8C243.413 270.787 243.413 269.8 243.626 268.84C245.866 268.893 247.92 268.947 249.786 269C251.706 269 253.173 269 254.186 269C255.253 269 256.373 269 257.546 269C258.72 268.947 260.213 268.893 262.026 268.84C262.24 269.8 262.24 270.787 262.026 271.8H243.626ZM303.389 325.8C303.123 323.88 302.696 321.987 302.109 320.12C301.523 318.253 300.829 316.413 300.029 314.6L284.189 277.48C284.136 278.227 284.056 279.293 283.949 280.68C283.896 282.067 283.869 283.773 283.869 285.8V308.2C283.869 310.6 283.949 312.947 284.109 315.24C284.323 317.48 284.643 319.8 285.069 322.2H292.029C292.243 323.16 292.243 324.147 292.029 325.16C289.789 325.053 287.789 325 286.029 325C284.323 325 282.963 325 281.949 325C280.989 325 279.816 325 278.429 325C277.043 325 275.416 325.053 273.549 325.16C273.336 324.147 273.336 323.16 273.549 322.2H278.909C279.336 319.8 279.629 317.48 279.789 315.24C280.003 312.947 280.109 310.6 280.109 308.2V285.8C280.109 283.773 280.003 281.64 279.789 279.4C279.629 277.107 279.336 274.573 278.909 271.8H273.549C273.336 270.787 273.336 269.8 273.549 268.84C275.416 268.893 277.043 268.947 278.429 269C279.816 269 280.989 269 281.949 269H295.069C295.496 270.92 295.976 272.84 296.509 274.76C297.096 276.68 297.763 278.493 298.509 280.2L310.029 306.92L320.109 281.64C321.069 279.187 321.843 276.947 322.429 274.92C323.069 272.893 323.576 270.92 323.949 269H333.149C335.016 269 337.043 269 339.229 269C341.469 268.947 343.496 268.893 345.309 268.84C345.523 269.8 345.523 270.787 345.309 271.8H339.949C339.683 273.987 339.469 276.28 339.309 278.68C339.203 281.027 339.149 283.4 339.149 285.8V308.2C339.149 310.6 339.203 313 339.309 315.4C339.469 317.747 339.683 320.013 339.949 322.2H345.309C345.523 323.16 345.523 324.147 345.309 325.16C343.496 325.053 341.469 325 339.229 325C337.043 325 335.016 325 333.149 325C331.336 325 329.309 325 327.069 325C324.883 325 322.856 325.053 320.989 325.16C320.776 324.147 320.776 323.16 320.989 322.2H326.349C326.616 320.013 326.803 317.747 326.909 315.4C327.069 313 327.149 310.6 327.149 308.2V285.8C327.149 283.773 327.069 281.8 326.909 279.88C326.803 277.96 326.696 276.627 326.589 275.88L311.309 314.6C310.616 316.413 310.003 318.253 309.469 320.12C308.936 321.987 308.509 323.88 308.189 325.8C306.589 326.067 304.989 326.067 303.389 325.8Z" fill="#EAD009"/>
<path d="M384.237 325.16C384.024 324.147 384.024 323.16 384.237 322.2H389.597C389.864 320.013 390.05 317.747 390.157 315.4C390.317 313 390.397 310.6 390.397 308.2V285.8C390.397 283.4 390.317 281.027 390.157 278.68C390.05 276.28 389.864 273.987 389.597 271.8H384.237C384.024 270.787 384.024 269.8 384.237 268.84C386.104 268.893 388.13 268.947 390.317 269C392.557 269 394.584 269 396.397 269C398.264 269 400.29 269 402.477 269C404.717 268.947 406.744 268.893 408.557 268.84C408.77 269.8 408.77 270.787 408.557 271.8H403.197C402.93 273.987 402.717 276.28 402.557 278.68C402.45 281.027 402.397 283.4 402.397 285.8V308.2C402.397 310.6 402.45 312.867 402.557 315C402.717 317.133 402.93 319.4 403.197 321.8H411.037C415.197 321.8 418.184 320.547 419.997 318.04C421.81 315.48 422.824 312.2 423.037 308.2C423.89 308.04 424.744 308.04 425.597 308.2V325H396.397C394.584 325 392.557 325 390.317 325C388.13 325 386.104 325.053 384.237 325.16ZM439.112 325.16C438.899 324.147 438.899 323.16 439.112 322.2H444.472C444.739 320.013 444.925 317.747 445.032 315.4C445.192 313 445.272 310.6 445.272 308.2V285.8C445.272 283.4 445.192 281.027 445.032 278.68C444.925 276.28 444.739 273.987 444.472 271.8H439.112C438.899 270.787 438.899 269.8 439.112 268.84C440.979 268.893 443.005 268.947 445.192 269C447.432 269 449.459 269 451.272 269C453.139 269 455.165 269 457.352 269C459.592 268.947 461.619 268.893 463.432 268.84C463.645 269.8 463.645 270.787 463.432 271.8H458.072C457.805 273.987 457.592 276.28 457.432 278.68C457.325 281.027 457.272 283.4 457.272 285.8V308.2C457.272 310.6 457.325 313 457.432 315.4C457.592 317.747 457.805 320.013 458.072 322.2H463.432C463.645 323.16 463.645 324.147 463.432 325.16C461.619 325.053 459.592 325 457.352 325C455.165 325 453.139 325 451.272 325C449.459 325 447.432 325 445.192 325C443.005 325 440.979 325.053 439.112 325.16ZM478.284 325.16C478.07 324.147 478.07 323.16 478.284 322.2H483.644C483.91 320.013 484.097 317.747 484.204 315.4C484.364 313 484.444 310.6 484.444 308.2V285.8C484.444 283.4 484.364 281.027 484.204 278.68C484.097 276.28 483.91 273.987 483.644 271.8H478.284C478.07 270.787 478.07 269.8 478.284 268.84C480.15 268.893 482.177 268.947 484.364 269C486.604 269 488.63 269 490.444 269H518.044V284.2C517.19 284.36 516.337 284.36 515.484 284.2C515.27 280.573 514.257 277.667 512.444 275.48C510.63 273.293 507.644 272.2 503.484 272.2H497.244C496.977 274.6 496.764 276.867 496.604 279C496.497 281.133 496.444 283.4 496.444 285.8V308.2C496.444 310.6 496.497 313 496.604 315.4C496.764 317.747 496.977 320.013 497.244 322.2H505.004C505.217 323.16 505.217 324.147 505.004 325.16C501.964 325.053 499.244 325 496.844 325C494.444 325 492.31 325 490.444 325C488.63 325 486.604 325 484.364 325C482.177 325 480.15 325.053 478.284 325.16ZM511.484 305.8C511.43 303.293 510.87 301.48 509.804 300.36C508.737 299.187 507.084 298.6 504.844 298.6H490.444V295.4H504.844C507.084 295.4 508.737 294.813 509.804 293.64C510.87 292.467 511.43 290.653 511.484 288.2C512.337 288.04 513.19 288.04 514.044 288.2V305.8C513.19 305.96 512.337 305.96 511.484 305.8ZM532.456 325.16C532.242 324.147 532.242 323.16 532.456 322.2H537.816C538.082 320.013 538.269 317.747 538.376 315.4C538.536 313 538.616 310.6 538.616 308.2V285.8C538.616 283.4 538.536 281.027 538.376 278.68C538.269 276.28 538.082 273.987 537.816 271.8H532.456C532.242 270.787 532.242 269.8 532.456 268.84C534.322 268.893 536.349 268.947 538.536 269C540.776 269 542.802 269 544.616 269H572.616V284.2C571.762 284.36 570.909 284.36 570.056 284.2C569.842 280.573 568.829 277.667 567.016 275.48C565.202 273.293 562.216 272.2 558.056 272.2H551.416C551.149 274.6 550.936 276.867 550.776 279C550.669 281.133 550.616 283.4 550.616 285.8V308.2C550.616 310.6 550.669 312.867 550.776 315C550.936 317.133 551.149 319.4 551.416 321.8H560.856C563.629 321.8 565.869 321.24 567.576 320.12C569.282 319 570.562 317.533 571.416 315.72C572.269 313.907 572.749 311.933 572.856 309.8C573.709 309.64 574.562 309.64 575.416 309.8V325H544.616C542.802 325 540.776 325 538.536 325C536.349 325 534.322 325.053 532.456 325.16ZM564.056 305C564.002 302.493 563.442 300.68 562.376 299.56C561.309 298.387 559.656 297.8 557.416 297.8H544.616V294.6H557.416C559.656 294.6 561.309 294.013 562.376 292.84C563.442 291.667 564.002 289.853 564.056 287.4C564.909 287.24 565.762 287.24 566.616 287.4V305C565.762 305.16 564.909 305.16 564.056 305Z" fill="white"/>
<rect x="122" y="220" width="202" height="1" fill="#FFFEFE"/>
<rect x="395" y="221" width="202" height="1" fill="white"/>
<path d="M337.793 208.761C334.31 222.766 360.011 241.148 360.011 241.148C360.011 241.148 352.103 228.456 345.246 211.499C370.503 273.648 359.034 218.278 360.011 207.448C360.011 207.448 341.277 194.756 337.793 208.761Z" fill="#EAD009"/>
<path d="M337.793 208.761C334.31 222.766 360.011 241.148 360.011 241.148C360.011 241.148 352.103 228.456 345.246 211.499C370.503 273.648 359.034 218.278 360.011 207.448C360.011 207.448 341.277 194.756 337.793 208.761Z" fill="#EAD009"/>
<path d="M382.132 208.761C385.616 222.766 359.915 241.148 359.915 241.148C359.915 241.148 367.822 228.456 374.679 211.499C349.423 273.648 360.892 218.278 359.915 207.448C359.915 207.448 378.648 194.756 382.132 208.761Z" fill="#EAD009"/>
<path d="M382.132 208.761C385.616 222.766 359.915 241.148 359.915 241.148C359.915 241.148 367.822 228.456 374.679 211.499C349.423 273.648 360.892 218.278 359.915 207.448C359.915 207.448 378.648 194.756 382.132 208.761Z" fill="#EAD009"/>
<rect width="0.870923" height="32.3875" rx="0.435461" transform="matrix(-1 0 0 1 360.386 208.629)" fill="#EAD009"/>
</svg>
