<svg width="317" height="317" viewBox="0 0 317 317" fill="none" xmlns="http://www.w3.org/2000/svg">
<circle cx="158.5" cy="158.5" r="158.5" fill="#2e2d2d"/>
<path d="M269 272.3C269 257.855 265.155 240.251 259.627 226.905C254.099 213.559 245.996 201.433 235.782 191.218C225.567 181.004 213.441 172.901 200.095 167.373C186.749 161.845 172.445 159 158 159C143.555 159 129.251 161.845 115.905 167.373C102.559 172.901 90.4327 181.004 80.2183 191.218C70.0038 201.433 61.9013 213.559 56.3732 226.905C50.8452 240.251 49 259.055 49 273.5C83.4885 301.876 99.2318 316.359 158 316.5H174.5L191.5 313.5L205 310L214.5 307L223.5 303.1L230.5 299.8L237.5 296L244.5 291.7L251 287.2L255.75 283.68L260.5 279.8L261.5 279L262.5 278.08L264.5 276.3L266.75 274.2L269 272.3Z" fill="#A9A9A9"/>
<circle cx="158" cy="83" r="60" fill="#A9A9A9"/>
</svg>
